<svg xmlns="http://www.w3.org/2000/svg" xmlns:xlink="http://www.w3.org/1999/xlink" width="500" zoomAndPan="magnify" viewBox="0 0 375 374.999991" height="500" preserveAspectRatio="xMidYMid meet" version="1.0"><defs><g/><clipPath id="6ac80061b7"><path d="M 121 111 L 255 111 L 255 232.914062 L 121 232.914062 Z M 121 111 " clip-rule="nonzero"/></clipPath><clipPath id="c9f3b1783d"><path d="M 110.351562 192 L 118 192 L 118 219 L 110.351562 219 Z M 110.351562 192 " clip-rule="nonzero"/></clipPath><clipPath id="4478c143db"><path d="M 257 192 L 265.082031 192 L 265.082031 219 L 257 219 Z M 257 192 " clip-rule="nonzero"/></clipPath></defs><g fill="#645caa" fill-opacity="1"><g transform="translate(97.150925, 256.995276)"><g><path d="M 6.140625 -15.90625 C 5.578125 -15.90625 5.148438 -15.671875 4.859375 -15.203125 C 4.742188 -14.984375 4.675781 -14.734375 4.65625 -14.453125 L 4.65625 0 C 4.65625 1.289062 4.25 2.378906 3.4375 3.265625 C 2.632812 4.160156 1.644531 4.609375 0.46875 4.609375 L 0.46875 4.40625 C 1.21875 4.144531 1.851562 3.578125 2.375 2.703125 C 2.894531 1.835938 3.15625 0.914062 3.15625 -0.0625 L 3.15625 -14.453125 C 3.144531 -14.859375 2.992188 -15.203125 2.703125 -15.484375 C 2.421875 -15.765625 2.082031 -15.90625 1.6875 -15.90625 L 1.390625 -15.90625 L 1.390625 -16.140625 L 6.4375 -16.140625 L 6.4375 -15.90625 Z M 6.140625 -15.90625 "/></g></g></g><g fill="#645caa" fill-opacity="1"><g transform="translate(113.842471, 256.995276)"><g><path d="M 16.5 -0.234375 L 16.6875 -0.234375 L 16.6875 0 L 11.5 0 L 11.5 -0.234375 L 11.703125 -0.234375 C 12.023438 -0.234375 12.265625 -0.335938 12.421875 -0.546875 C 12.585938 -0.753906 12.671875 -0.945312 12.671875 -1.125 C 12.671875 -1.3125 12.640625 -1.5 12.578125 -1.6875 L 11.109375 -5.609375 L 4.875 -5.609375 L 3.34375 -1.65625 C 3.28125 -1.476562 3.25 -1.300781 3.25 -1.125 C 3.25 -0.945312 3.328125 -0.753906 3.484375 -0.546875 C 3.648438 -0.335938 3.894531 -0.234375 4.21875 -0.234375 L 4.421875 -0.234375 L 4.421875 0 L -0.21875 0 L -0.21875 -0.234375 L 0 -0.234375 C 0.375 -0.234375 0.742188 -0.351562 1.109375 -0.59375 C 1.484375 -0.84375 1.785156 -1.207031 2.015625 -1.6875 L 7.234375 -14.09375 C 7.804688 -15.332031 8.09375 -16.125 8.09375 -16.46875 L 8.296875 -16.46875 L 14.46875 -1.6875 C 14.6875 -1.207031 14.976562 -0.84375 15.34375 -0.59375 C 15.71875 -0.351562 16.101562 -0.234375 16.5 -0.234375 Z M 5.15625 -6.296875 L 10.828125 -6.296875 L 8.0625 -13.703125 Z M 5.15625 -6.296875 "/></g></g></g><g fill="#645caa" fill-opacity="1"><g transform="translate(139.477698, 256.995276)"><g><path d="M 20.75 -0.234375 L 21.125 -0.234375 L 21.125 0 L 16.125 0 L 16.125 -0.203125 L 16.46875 -0.203125 C 16.726562 -0.203125 16.945312 -0.304688 17.125 -0.515625 C 17.3125 -0.722656 17.390625 -0.953125 17.359375 -1.203125 L 16.328125 -12.796875 L 11.484375 -2.03125 C 11.054688 -1.09375 10.796875 -0.304688 10.703125 0.328125 L 10.46875 0.328125 L 4.5625 -12.484375 L 3.578125 -1.203125 C 3.546875 -0.953125 3.617188 -0.722656 3.796875 -0.515625 C 3.984375 -0.304688 4.203125 -0.203125 4.453125 -0.203125 L 4.8125 -0.203125 L 4.8125 0 L 0.34375 0 L 0.34375 -0.234375 L 0.71875 -0.234375 C 1.144531 -0.234375 1.515625 -0.363281 1.828125 -0.625 C 2.148438 -0.882812 2.34375 -1.238281 2.40625 -1.6875 L 4.125 -16.46875 L 4.359375 -16.46875 L 10.796875 -2.5625 L 17.09375 -16.46875 L 17.296875 -16.46875 L 19.078125 -1.6875 C 19.148438 -1.070312 19.457031 -0.640625 20 -0.390625 C 20.226562 -0.285156 20.476562 -0.234375 20.75 -0.234375 Z M 20.75 -0.234375 "/></g></g></g><g fill="#645caa" fill-opacity="1"><g transform="translate(170.161029, 256.995276)"><g/></g></g><g fill="#645caa" fill-opacity="1"><g transform="translate(185.14682, 256.995276)"><g><path d="M 13.578125 -14.09375 C 13.578125 -14.457031 13.445312 -14.773438 13.1875 -15.046875 C 12.925781 -15.316406 12.617188 -15.457031 12.265625 -15.46875 L 7.890625 -15.46875 L 7.890625 -1.65625 C 7.898438 -1.257812 8.046875 -0.921875 8.328125 -0.640625 C 8.617188 -0.367188 8.960938 -0.234375 9.359375 -0.234375 L 9.65625 -0.234375 L 9.65625 0 L 4.609375 0 L 4.609375 -0.234375 L 4.90625 -0.234375 C 5.3125 -0.234375 5.65625 -0.367188 5.9375 -0.640625 C 6.21875 -0.921875 6.367188 -1.253906 6.390625 -1.640625 L 6.390625 -15.46875 L 2 -15.46875 C 1.632812 -15.457031 1.320312 -15.316406 1.0625 -15.046875 C 0.8125 -14.773438 0.6875 -14.457031 0.6875 -14.09375 L 0.6875 -13.703125 L 0.46875 -13.671875 L 0.46875 -16.578125 C 0.695312 -16.484375 1.09375 -16.390625 1.65625 -16.296875 C 2.226562 -16.210938 2.753906 -16.171875 3.234375 -16.171875 L 11.03125 -16.171875 C 11.78125 -16.171875 12.40625 -16.226562 12.90625 -16.34375 C 13.40625 -16.457031 13.707031 -16.535156 13.8125 -16.578125 L 13.8125 -13.671875 L 13.578125 -13.703125 Z M 13.578125 -14.09375 "/></g></g></g><g fill="#645caa" fill-opacity="1"><g transform="translate(208.615286, 256.995276)"><g><path d="M 16.953125 -15.90625 L 16.578125 -15.90625 C 16.253906 -15.90625 15.972656 -15.800781 15.734375 -15.59375 C 15.492188 -15.394531 15.367188 -15.140625 15.359375 -14.828125 L 15.359375 -5.703125 C 15.359375 -3.898438 14.789062 -2.441406 13.65625 -1.328125 C 12.519531 -0.222656 11.003906 0.328125 9.109375 0.328125 C 7.210938 0.328125 5.675781 -0.21875 4.5 -1.3125 C 3.332031 -2.414062 2.75 -3.867188 2.75 -5.671875 L 2.75 -14.765625 C 2.75 -15.222656 2.546875 -15.5625 2.140625 -15.78125 C 1.960938 -15.863281 1.753906 -15.90625 1.515625 -15.90625 L 1.15625 -15.90625 L 1.15625 -16.140625 L 5.828125 -16.140625 L 5.828125 -15.90625 L 5.46875 -15.90625 C 5.125 -15.90625 4.835938 -15.800781 4.609375 -15.59375 C 4.378906 -15.394531 4.257812 -15.132812 4.25 -14.8125 L 4.25 -6 C 4.25 -4.320312 4.695312 -2.96875 5.59375 -1.9375 C 6.488281 -0.90625 7.691406 -0.390625 9.203125 -0.390625 C 10.710938 -0.390625 11.9375 -0.878906 12.875 -1.859375 C 13.8125 -2.835938 14.28125 -4.117188 14.28125 -5.703125 L 14.28125 -14.8125 C 14.257812 -15.132812 14.132812 -15.394531 13.90625 -15.59375 C 13.675781 -15.800781 13.390625 -15.90625 13.046875 -15.90625 L 12.6875 -15.90625 L 12.6875 -16.140625 L 16.953125 -16.140625 Z M 16.953125 -15.90625 "/></g></g></g><g fill="#645caa" fill-opacity="1"><g transform="translate(235.933212, 256.995276)"><g><path d="M 17.9375 -15.90625 C 17.550781 -15.90625 17.21875 -15.769531 16.9375 -15.5 C 16.664062 -15.238281 16.523438 -14.914062 16.515625 -14.53125 L 16.515625 -2.625 C 16.515625 -1.738281 16.566406 -0.894531 16.671875 -0.09375 L 16.71875 0.328125 L 16.515625 0.328125 L 3.9375 -13.09375 L 3.9375 -1.609375 C 3.957031 -1.078125 4.195312 -0.679688 4.65625 -0.421875 C 4.875 -0.296875 5.101562 -0.234375 5.34375 -0.234375 L 5.78125 -0.234375 L 5.78125 0 L 1.03125 0 L 1.03125 -0.234375 L 1.46875 -0.234375 C 1.851562 -0.234375 2.179688 -0.363281 2.453125 -0.625 C 2.734375 -0.894531 2.875 -1.234375 2.875 -1.640625 L 2.875 -13.609375 C 2.875 -14.546875 2.820312 -15.382812 2.71875 -16.125 L 2.671875 -16.484375 L 2.90625 -16.484375 L 15.46875 -3.0625 L 15.46875 -14.5 C 15.457031 -14.90625 15.3125 -15.238281 15.03125 -15.5 C 14.757812 -15.769531 14.429688 -15.90625 14.046875 -15.90625 L 13.609375 -15.90625 L 13.609375 -16.140625 L 18.359375 -16.140625 L 18.359375 -15.90625 Z M 17.9375 -15.90625 "/></g></g></g><g fill="#645caa" fill-opacity="1"><g transform="translate(264.541975, 256.995276)"><g><path d="M 1.6875 -0.234375 C 2.082031 -0.234375 2.421875 -0.375 2.703125 -0.65625 C 2.992188 -0.9375 3.144531 -1.28125 3.15625 -1.6875 L 3.15625 -14.59375 C 3.113281 -14.96875 2.953125 -15.28125 2.671875 -15.53125 C 2.398438 -15.78125 2.070312 -15.90625 1.6875 -15.90625 L 1.40625 -15.90625 L 1.390625 -16.140625 L 8.140625 -16.140625 C 8.617188 -16.140625 9.140625 -16.1875 9.703125 -16.28125 C 10.265625 -16.375 10.660156 -16.46875 10.890625 -16.5625 L 10.890625 -13.65625 L 10.65625 -13.65625 L 10.65625 -14.0625 C 10.65625 -14.4375 10.523438 -14.753906 10.265625 -15.015625 C 10.015625 -15.273438 9.710938 -15.410156 9.359375 -15.421875 L 4.65625 -15.421875 L 4.65625 -8.296875 L 8.5625 -8.296875 C 8.863281 -8.316406 9.117188 -8.429688 9.328125 -8.640625 C 9.546875 -8.859375 9.65625 -9.128906 9.65625 -9.453125 L 9.65625 -9.78125 L 9.890625 -9.78125 L 9.890625 -6.140625 L 9.65625 -6.140625 L 9.65625 -6.484375 C 9.65625 -6.785156 9.550781 -7.046875 9.34375 -7.265625 C 9.144531 -7.484375 8.890625 -7.597656 8.578125 -7.609375 L 4.65625 -7.609375 L 4.65625 -0.71875 L 7.953125 -0.71875 C 9.085938 -0.71875 9.957031 -0.96875 10.5625 -1.46875 C 11.164062 -1.976562 11.664062 -2.734375 12.0625 -3.734375 L 12.296875 -3.734375 L 10.953125 0 L 1.390625 0 L 1.390625 -0.234375 Z M 1.6875 -0.234375 "/></g></g></g><g clip-path="url(#6ac80061b7)"><path fill="#645caa" d="M 254.402344 188.890625 C 254.851562 182.507812 256.042969 150.378906 236.550781 129.25 C 225.046875 116.777344 208.691406 110.648438 187.929688 111.058594 C 167.175781 110.667969 150.8125 116.78125 139.308594 129.25 C 120.3125 149.84375 120.957031 180.886719 121.421875 188.355469 C 121.144531 189.390625 121 190.476562 121 191.597656 L 121 220.246094 C 121 227.195312 126.621094 232.824219 133.566406 232.824219 L 142.289062 232.824219 C 149.230469 232.824219 154.859375 227.195312 154.859375 220.246094 L 154.859375 191.597656 C 154.859375 184.648438 149.230469 179.019531 142.289062 179.019531 L 133.566406 179.019531 C 132.617188 179.019531 131.695312 179.125 130.808594 179.324219 C 131.28125 167.902344 134.054688 148.824219 146.265625 135.613281 C 155.878906 125.21875 169.890625 120.117188 187.835938 120.492188 L 187.929688 120.496094 L 188.023438 120.492188 C 205.976562 120.132812 219.980469 125.21875 229.59375 135.613281 C 241.820312 148.839844 244.582031 167.945312 245.054688 179.363281 C 244.113281 179.140625 243.136719 179.019531 242.128906 179.019531 L 233.402344 179.019531 C 226.460938 179.019531 220.835938 184.648438 220.835938 191.597656 L 220.835938 220.246094 C 220.835938 227.195312 226.460938 232.824219 233.402344 232.824219 L 242.128906 232.824219 C 249.070312 232.824219 254.699219 227.195312 254.699219 220.246094 L 254.699219 191.597656 C 254.695312 190.667969 254.59375 189.761719 254.402344 188.890625 Z M 254.402344 188.890625 " fill-opacity="1" fill-rule="nonzero"/></g><g clip-path="url(#c9f3b1783d)"><path fill="#645caa" d="M 117.941406 192.296875 L 110.351562 196.75 L 110.351562 213.78125 L 117.941406 218.761719 " fill-opacity="1" fill-rule="nonzero"/></g><g clip-path="url(#4478c143db)"><path fill="#645caa" d="M 257.488281 192.296875 L 265.082031 196.75 L 265.082031 213.78125 L 257.488281 218.761719 " fill-opacity="1" fill-rule="nonzero"/></g></svg>